<?xml version="1.0" encoding="iso-8859-1"?>
<!-- Generator: Adobe Illustrator 19.0.0, SVG Export Plug-In . SVG Version: 6.00 Build 0)  -->
<svg version="1.1" id="Layer_1" xmlns="http://www.w3.org/2000/svg" xmlns:xlink="http://www.w3.org/1999/xlink" x="0px" y="0px"
	 viewBox="0 0 368 368" style="enable-background:new 0 0 368 368;" xml:space="preserve">
<g transform="translate(21 20)">
	<path style="fill:#9CE0FF;" d="M163,340c97.2,0,176-78.8,176-176S260.2-12,163-12S-13,66.8-13,164S65.8,340,163,340L163,340z"/>
	<path style="fill:#8DDBFE;" d="M75,310.8c82.4,47.6,187.6,19.2,234.8-62.8C357.4,165.6,329,60.4,247,13.2
		C325,161.6,246.2,268,75,310.8L75,310.8z"/>
	<path style="fill:#61A1DD;" d="M163,348C61.4,348-21,265.6-21,164S61.4-20,163-20s184,82.4,184,184S264.6,348,163,348z M163-4
		C70.2-4-5,71.2-5,164s75.2,168,168,168s168-75.2,168-168S255.8-4,163-4z"/>
	<g>
		<path style="fill:#FFFFFF;" d="M163,40c-4.4,0-8-3.6-8-8v-4c0-4.4,3.6-8,8-8s8,3.6,8,8v4C171,36.4,167.4,40,163,40z"/>
		<path style="fill:#FFFFFF;" d="M163,308c-4.4,0-8-3.6-8-8v-4c0-4.4,3.6-8,8-8s8,3.6,8,8v4C171,304.4,167.4,308,163,308z"/>
		<path style="fill:#FFFFFF;" d="M299,172h-4c-4.4,0-8-3.6-8-8s3.6-8,8-8h4c4.4,0,8,3.6,8,8S303.4,172,299,172z"/>
		<path style="fill:#FFFFFF;" d="M31,172h-4c-4.4,0-8-3.6-8-8s3.6-8,8-8h4c4.4,0,8,3.6,8,8S35.4,172,31,172z"/>
		<path style="fill:#FFFFFF;" d="M69.8,78.8c-2,0-4-0.8-5.6-2.4l-2.8-2.8c-3.2-3.2-3.2-8,0-11.2s8-3.2,11.2,0l2.8,2.8
			c3.2,3.2,3.2,8,0,11.2C73.8,78,71.8,78.8,69.8,78.8z"/>
		<path style="fill:#FFFFFF;" d="M67,268c-2,0-4-0.8-5.6-2.4c-3.2-3.2-3.2-8,0-11.2l2.8-2.8c3.2-3.2,8-3.2,11.2,0s3.2,8,0,11.2
			l-2.8,2.8C71,267.2,69,268,67,268z"/>
		<path style="fill:#FFFFFF;" d="M256.2,78.8c-2,0-4-0.8-5.6-2.4c-3.2-3.2-3.2-8,0-11.2l2.8-2.8c3.2-3.2,8-3.2,11.2,0s3.2,8,0,11.2
			l-2.8,2.8C260.2,78,258.2,78.8,256.2,78.8z"/>
	</g>
	<path style="fill:#C6490F;" d="M163,172c-4.4,0-8-3.6-8-8V88c0-4.4,3.6-8,8-8s8,3.6,8,8v76C171,168.4,167.4,172,163,172z"/>
	<path style="fill:#61A1DD;" d="M250.6,259.6c-2,0-4-0.8-5.6-2.4l-87.6-87.6c-3.2-3.2-3.2-8,0-11.2s8-3.2,11.2,0l87.6,87.6
		c3.2,3.2,3.2,8,0,11.2C254.6,258.8,252.6,259.6,250.6,259.6z"/>
</g>
<g>
</g>
<g>
</g>
<g>
</g>
<g>
</g>
<g>
</g>
<g>
</g>
<g>
</g>
<g>
</g>
<g>
</g>
<g>
</g>
<g>
</g>
<g>
</g>
<g>
</g>
<g>
</g>
<g>
</g>
</svg>
